<?xml version="1.0" encoding="UTF-8" standalone="no"?>
<!DOCTYPE svg PUBLIC "-//W3C//DTD SVG 1.1//EN"
 "http://www.w3.org/Graphics/SVG/1.1/DTD/svg11.dtd">
<!-- Generated by graphviz version 2.43.0 (0)
 -->
<!-- Title: top Pages: 1 -->
<svg width="829pt" height="175pt"
 viewBox="0.00 0.00 828.57 175.00" xmlns="http://www.w3.org/2000/svg" xmlns:xlink="http://www.w3.org/1999/xlink">
<g id="graph0" class="graph" transform="scale(1 1) rotate(0) translate(4 171)">
<title>top</title>
<polygon fill="white" stroke="transparent" points="-4,4 -4,-171 824.57,-171 824.57,4 -4,4"/>
<text text-anchor="middle" x="410.29" y="-7.8" font-family="Times,serif" font-size="14.00">top</text>
<!-- n1 -->
<g id="node1" class="node">
<title>n1</title>
<polygon fill="none" stroke="black" points="820.57,-87.54 820.57,-102.46 804.75,-113 782.39,-113 766.57,-102.46 766.57,-87.54 782.39,-77 804.75,-77 820.57,-87.54"/>
<text text-anchor="middle" x="793.57" y="-91.3" font-family="Times,serif" font-size="14.00">q</text>
</g>
<!-- n2 -->
<g id="node2" class="node">
<title>n2</title>
<polygon fill="none" stroke="black" points="64.29,-87.54 64.29,-102.46 48.47,-113 26.1,-113 10.29,-102.46 10.29,-87.54 26.1,-77 48.47,-77 64.29,-87.54"/>
<text text-anchor="middle" x="37.29" y="-91.3" font-family="Times,serif" font-size="14.00">en</text>
</g>
<!-- c5 -->
<g id="node5" class="node">
<title>c5</title>
<polygon fill="none" stroke="black" points="110.57,-60.5 110.57,-129.5 730.57,-129.5 730.57,-60.5 110.57,-60.5"/>
<text text-anchor="middle" x="137.07" y="-114.3" font-family="Times,serif" font-size="14.00">clk</text>
<polyline fill="none" stroke="black" points="110.57,-106.5 163.57,-106.5 "/>
<text text-anchor="middle" x="137.07" y="-91.3" font-family="Times,serif" font-size="14.00">en</text>
<polyline fill="none" stroke="black" points="110.57,-83.5 163.57,-83.5 "/>
<text text-anchor="middle" x="137.07" y="-68.3" font-family="Times,serif" font-size="14.00">rst_n</text>
<polyline fill="none" stroke="black" points="163.57,-60.5 163.57,-129.5 "/>
<text text-anchor="middle" x="434.07" y="-98.8" font-family="Times,serif" font-size="14.00">u_cnt</text>
<text text-anchor="middle" x="434.07" y="-83.8" font-family="Times,serif" font-size="14.00">$paramod╲counter╲WIDTH=s32&#39;00000000000000000000000000001000</text>
<polyline fill="none" stroke="black" points="704.57,-60.5 704.57,-129.5 "/>
<text text-anchor="middle" x="717.57" y="-91.3" font-family="Times,serif" font-size="14.00">q</text>
</g>
<!-- n2&#45;&gt;c5 -->
<g id="edge2" class="edge">
<title>n2:e&#45;&gt;c5:w</title>
<path fill="none" stroke="black" d="M65.29,-95C81.48,-95 87.9,-95 100.28,-95"/>
<polygon fill="black" stroke="black" points="100.57,-98.5 110.57,-95 100.57,-91.5 100.57,-98.5"/>
</g>
<!-- n3 -->
<g id="node3" class="node">
<title>n3</title>
<polygon fill="none" stroke="black" points="74.36,-33.54 74.36,-48.46 52.64,-59 21.93,-59 0.21,-48.46 0.21,-33.54 21.93,-23 52.64,-23 74.36,-33.54"/>
<text text-anchor="middle" x="37.29" y="-37.3" font-family="Times,serif" font-size="14.00">rst_n</text>
</g>
<!-- n3&#45;&gt;c5 -->
<g id="edge3" class="edge">
<title>n3:e&#45;&gt;c5:w</title>
<path fill="none" stroke="black" d="M74.57,-41C91.56,-41 90.85,-61.07 100.92,-68.91"/>
<polygon fill="black" stroke="black" points="99.98,-72.29 110.57,-72 102.11,-65.62 99.98,-72.29"/>
</g>
<!-- n4 -->
<g id="node4" class="node">
<title>n4</title>
<polygon fill="none" stroke="black" points="64.29,-141.54 64.29,-156.46 48.47,-167 26.1,-167 10.29,-156.46 10.29,-141.54 26.1,-131 48.47,-131 64.29,-141.54"/>
<text text-anchor="middle" x="37.29" y="-145.3" font-family="Times,serif" font-size="14.00">clk</text>
</g>
<!-- n4&#45;&gt;c5 -->
<g id="edge4" class="edge">
<title>n4:e&#45;&gt;c5:w</title>
<path fill="none" stroke="black" d="M65.29,-149C85.67,-149 86.58,-127.34 100.57,-120.23"/>
<polygon fill="black" stroke="black" points="101.57,-123.59 110.57,-118 100.05,-116.76 101.57,-123.59"/>
</g>
<!-- c5&#45;&gt;n1 -->
<g id="edge1" class="edge">
<title>c5:e&#45;&gt;n1:w</title>
<path fill="none" stroke="black" stroke-width="3" d="M730.57,-95C742.57,-95 747.82,-95 756.45,-95"/>
<polygon fill="black" stroke="black" stroke-width="3" points="756.57,-98.5 766.57,-95 756.57,-91.5 756.57,-98.5"/>
</g>
</g>
</svg>
